<?xml version="1.0" standalone="no"?>
<!DOCTYPE svg PUBLIC "-//W3C//DTD SVG 20010904//EN"
 "http://www.w3.org/TR/2001/REC-SVG-20010904/DTD/svg10.dtd">
<svg version="1.0" xmlns="http://www.w3.org/2000/svg"
 width="32.000000pt" height="32.000000pt" viewBox="0 0 32.000000 32.000000"
 preserveAspectRatio="xMidYMid meet">

<g transform="translate(0.000000,32.000000) scale(0.100000,-0.100000)"
fill="#000000" stroke="none">
<path d="M87 294 c-12 -13 -7 -44 8 -50 22 -9 19 -76 -5 -107 -27 -34 -26 -37
20 -37 l40 0 0 -40 c0 -22 5 -40 10 -40 6 0 10 18 10 40 l0 40 40 0 c46 0 47
3 20 37 -25 32 -27 98 -4 107 9 3 14 15 12 28 -3 21 -9 23 -73 26 -39 1 -74 0
-78 -4z m133 -24 c0 -6 -27 -10 -60 -10 -33 0 -60 4 -60 10 0 6 27 10 60 10
33 0 60 -4 60 -10z m-30 -65 c0 -32 -2 -35 -30 -35 -28 0 -30 3 -30 35 0 32 2
35 30 35 28 0 30 -3 30 -35z m20 -70 c11 -13 4 -15 -50 -15 -54 0 -61 2 -50
15 7 8 29 15 50 15 21 0 43 -7 50 -15z"/>
</g>
</svg>
